HIERARCHY
ROOT joint_Root
{
	OFFSET 0.0 0.0 0.0
	CHANNELS 6 Xposition Yposition Zposition Zrotation Xrotation Yrotation 
	JOINT Hips
	{
		OFFSET 4.5925 91.4895 -427.239
		CHANNELS 6 Xposition Yposition Zposition Zrotation Xrotation Yrotation 
		JOINT Spine
		{
			OFFSET 15.7357 0.0 0.0
			CHANNELS 6 Xposition Yposition Zposition Zrotation Xrotation Yrotation 
			JOINT Chest
			{
				OFFSET 8.98455 -0.406207 0.0
				CHANNELS 6 Xposition Yposition Zposition Zrotation Xrotation Yrotation 
				JOINT Neck
				{
					OFFSET 16.3773 0.0 0.0
					CHANNELS 6 Xposition Yposition Zposition Zrotation Xrotation Yrotation 
					JOINT Head
					{
						OFFSET 6.45672 0.0 0.0
						CHANNELS 6 Xposition Yposition Zposition Zrotation Xrotation Yrotation 
						End Site
						{
							OFFSET 0.0 0.0 0.0
						}
					}
				}
				JOINT Shoulder_L
				{
					OFFSET 12.9942 -0.242716 4.98039
					CHANNELS 6 Xposition Yposition Zposition Zrotation Xrotation Yrotation 
					JOINT UpperArm_L
					{
						OFFSET 5.34809 0.0 0.0
						CHANNELS 6 Xposition Yposition Zposition Zrotation Xrotation Yrotation 
						JOINT LowerArm_L
						{
							OFFSET 24.3286 1.87007e-05 0.0
							CHANNELS 6 Xposition Yposition Zposition Zrotation Xrotation Yrotation 
							JOINT Hand_L
							{
								OFFSET 22.2916 0.0 0.0
								CHANNELS 6 Xposition Yposition Zposition Zrotation Xrotation Yrotation 
								End Site
								{
									OFFSET 0.0 0.0 0.0
								}
							}
						}
					}
				}
				JOINT Shoulder_R
				{
					OFFSET 12.9945 -0.242716 -4.98039
					CHANNELS 6 Xposition Yposition Zposition Zrotation Xrotation Yrotation 
					JOINT UpperArm_R
					{
						OFFSET -5.34813 0.0 0.0
						CHANNELS 6 Xposition Yposition Zposition Zrotation Xrotation Yrotation 
						JOINT LowerArm_R
						{
							OFFSET -24.3289 0.000322201 0.0
							CHANNELS 6 Xposition Yposition Zposition Zrotation Xrotation Yrotation 
							JOINT Hand_R
							{
								OFFSET -22.2915 -0.000108084 0.0
								CHANNELS 6 Xposition Yposition Zposition Zrotation Xrotation Yrotation 
								End Site
								{
									OFFSET 0.0 0.0 0.0
								}
							}
						}
					}
				}
			}
		}
		JOINT UpperLeg_L
		{
			OFFSET -2.19248 -6.46944 0.0
			CHANNELS 6 Xposition Yposition Zposition Zrotation Xrotation Yrotation 
			JOINT LowerLeg_L
			{
				OFFSET 39.0811 0.0 -1.23785e-05
				CHANNELS 6 Xposition Yposition Zposition Zrotation Xrotation Yrotation 
				JOINT Foot_L
				{
					OFFSET 40.9854 0.0 -1.26872e-05
					CHANNELS 6 Xposition Yposition Zposition Zrotation Xrotation Yrotation 
					JOINT Toes_L
					{
						OFFSET 11.7543 0.0 0.0
						CHANNELS 6 Xposition Yposition Zposition Zrotation Xrotation Yrotation 
						End Site
						{
							OFFSET 0.0 0.0 0.0
						}
					}
				}
			}
		}
		JOINT UpperLeg_R
		{
			OFFSET -2.19251 6.46944 0.0
			CHANNELS 6 Xposition Yposition Zposition Zrotation Xrotation Yrotation 
			JOINT LowerLeg_R
			{
				OFFSET -39.0811 -0.00228153 -0.0401928
				CHANNELS 6 Xposition Yposition Zposition Zrotation Xrotation Yrotation 
				JOINT Foot_R
				{
					OFFSET -40.9854 0.0 0.0
					CHANNELS 6 Xposition Yposition Zposition Zrotation Xrotation Yrotation 
					JOINT Toes_R
					{
						OFFSET -11.7543 0.0 0.0
						CHANNELS 6 Xposition Yposition Zposition Zrotation Xrotation Yrotation 
						End Site
						{
							OFFSET 0.0 0.0 0.0
						}
					}
				}
			}
		}
	}
}
MOTION
Frames:	4
Frame Time:	0.0333333
0.000000 0.000000 0.000000 0.000000 0.000000 -0.000000 -1.229530 93.996000 -69.871700 86.295100 12.697200 -18.916100 15.735700 0.000005 -0.000001 31.259200 81.104400 -27.692900 8.984550 -0.406207 -0.000000 2.031040 -15.378500 7.433880 16.377300 -0.000001 -0.000001 0.098123 -1.777010 0.819057 6.456720 -0.000001 -0.000000 -10.365600 4.463630 4.238780 12.994200 -0.242716 4.980390 -85.872400 -14.274300 -73.686100 5.348090 -0.000007 -0.000001 -66.121800 6.560480 -29.892400 24.328600 0.000019 0.000005 6.468220 -1.449850 -102.586000 22.291600 -0.000001 0.000005 -0.616326 5.380410 -2.312750 12.994500 -0.242716 -4.980390 92.807500 -6.761310 -67.387400 -5.348130 -0.000001 -0.000004 -70.114400 24.972600 39.341300 -24.328900 0.000322 -0.000009 -2.774110 -2.004560 -54.148500 -22.291500 -0.000108 -0.000004 2.259880 5.513970 -7.107140 -2.192480 -6.469440 -0.000000 -160.428000 -21.342800 7.095430 39.081100 -0.000007 -0.000012 0.079175 -0.186063 23.051200 40.985400 -0.000006 -0.000013 -9.996590 8.316630 -28.809800 11.754300 -0.000000 0.000003 -0.002700 -0.037165 -18.088100 -2.192510 6.469440 -0.000001 -171.829000 2.466800 117.996000 -39.081100 -0.002282 -0.040193 0.158297 -0.068060 66.313300 -40.985400 0.000008 0.000006 6.819460 -2.591130 -57.873000 -11.754300 -0.000006 -0.000006 -0.012602 -0.122150 -21.553500
0.000000 0.000000 0.000000 0.000000 0.000000 -0.000000 -0.793422 94.572700 -57.537900 88.944200 13.355500 -17.705100 15.735700 0.000005 -0.000001 30.379700 79.877100 -27.243100 8.984550 -0.406207 -0.000000 3.095540 -17.578200 6.783840 16.377300 -0.000001 -0.000001 0.563561 -2.060170 2.089420 6.456720 -0.000001 -0.000000 -9.864630 6.601070 2.977510 12.994200 -0.242716 4.980390 -85.859800 -14.425300 -73.797800 5.348090 -0.000007 -0.000001 -67.014000 7.304170 -25.525000 24.328600 0.000019 0.000005 5.639770 -1.571700 -105.523000 22.291600 -0.000001 0.000005 -0.628460 5.369260 -1.964470 12.994500 -0.242716 -4.980390 92.805600 -6.392030 -66.240400 -5.348130 -0.000001 -0.000004 -69.958200 25.357200 39.859800 -24.328900 0.000322 -0.000009 -3.533800 -2.162980 -58.558500 -22.291500 -0.000108 -0.000004 2.721750 5.517920 -7.271740 -2.192480 -6.469440 -0.000000 -160.264000 -17.454100 10.516800 39.081100 -0.000007 -0.000012 0.160442 -0.267820 30.924400 40.985400 -0.000006 -0.000013 -6.414390 3.622720 -27.731100 11.754300 -0.000000 0.000003 -0.001764 -0.025729 -17.623000 -2.192510 6.469440 -0.000001 -172.735000 8.601830 125.022000 -39.081100 -0.002282 -0.040193 0.043483 -0.041819 43.880100 -40.985400 0.000008 0.000006 2.855760 3.746000 -63.403400 -11.754300 -0.000006 -0.000006 -0.014468 -0.134441 -22.057500
0.000000 0.000000 0.000000 0.000000 0.000000 -0.000000 -0.180083 94.022300 -44.813200 92.120500 13.979500 -15.101000 15.735700 0.000005 -0.000001 33.087500 78.818900 -30.700300 8.984550 -0.406207 -0.000000 5.059860 -18.758000 5.638350 16.377300 -0.000001 -0.000001 0.873548 -2.624530 2.689220 6.456720 -0.000001 -0.000000 -9.522550 7.407200 2.402120 12.994200 -0.242716 4.980390 -86.203000 -13.788600 -74.439700 5.348090 -0.000007 -0.000001 -68.666100 9.579060 -20.699100 24.328600 0.000019 0.000005 5.355360 -1.514150 -105.740000 22.291600 -0.000001 0.000005 0.750611 5.367020 -1.889620 12.994500 -0.242716 -4.980390 92.327100 -4.990530 -64.957600 -5.348130 -0.000001 -0.000004 -69.470900 23.579400 37.842700 -24.328900 0.000322 -0.000009 -3.697370 -2.105530 -60.370000 -22.291500 -0.000108 -0.000004 3.460470 5.526950 -7.661040 -2.192480 -6.469440 -0.000000 -165.040000 -7.182250 14.487200 39.081100 -0.000007 -0.000012 0.206307 -0.244860 40.115700 40.985400 -0.000006 -0.000013 -3.595960 -1.205560 -27.306200 11.754300 -0.000000 0.000003 -0.001190 -0.018068 -17.311500 -2.192510 6.469440 -0.000001 -173.212000 16.830700 132.291000 -39.081100 -0.002282 -0.040193 -0.100078 0.213403 25.849000 -40.985400 0.000008 0.000006 -2.910860 14.475500 -68.955300 -11.754300 -0.000006 -0.000006 -0.017166 -0.151052 -22.739700
0.000000 0.000000 0.000000 0.000000 0.000000 -0.000000 0.398629 92.540900 -31.935300 93.794500 12.780700 -12.303700 15.735700 0.000005 -0.000001 39.171200 78.535800 -37.300500 8.984550 -0.406207 -0.000000 7.278140 -17.723100 4.896710 16.377300 -0.000001 -0.000001 2.214020 -3.134280 3.191470 6.456720 -0.000001 -0.000000 -11.074300 7.411180 2.066860 12.994200 -0.242716 4.980390 -86.637300 -11.829600 -74.004700 5.348090 -0.000007 -0.000001 -69.706300 14.119100 -17.124700 24.328600 0.000019 0.000005 3.856500 -0.775247 -101.336000 22.291600 -0.000001 0.000005 2.699160 5.388510 -2.564630 12.994500 -0.242716 -4.980390 90.971500 -2.076950 -64.930400 -5.348130 -0.000001 -0.000004 -68.449100 20.406800 33.505400 -24.328900 0.000322 -0.000009 -4.061100 -2.316800 -60.336000 -22.291500 -0.000108 -0.000004 4.021970 5.526830 -7.656950 -2.192480 -6.469440 -0.000000 -170.571000 -1.056420 17.341000 39.081100 -0.000007 -0.000012 0.288169 -0.220430 52.586200 40.985400 -0.000006 -0.000013 -4.254430 -0.834929 -24.759100 11.754300 -0.000000 0.000003 -0.000554 -0.008851 -16.937000 -2.192510 6.469440 -0.000001 -171.707000 23.680700 135.283000 -39.081100 -0.002282 -0.040193 -0.142000 0.376793 21.090500 -40.985400 0.000008 0.000006 -4.221350 18.572000 -74.177500 -11.754300 -0.000006 -0.000006 -0.018829 -0.160717 -23.137300
